<svg width="878" height="752" viewBox="0 0 878 752" fill="none" xmlns="http://www.w3.org/2000/svg">
<path d="M644.002 7.5L625.502 12.5L609.002 18C604.002 19.5 600.002 22.4537 600.002 25.5C600.002 30 606.922 33.4543 610.502 35.5C614.002 37.5 669.502 52.2199 681.502 57.5C685.669 59.3333 694.002 64 694.002 68C694.002 72 690.502 76 683.502 80.5L643.252 93.25L603.002 106C593.002 110.5 585.166 118.354 584.502 124C583.502 132.5 594.502 138.727 599.502 141C603.622 142.873 612.502 147 622.502 151L668.502 167.5C676.002 170.5 717.702 187.9 722.502 193.5C728.502 200.5 730.502 206.5 730.502 213C730.502 219.5 720.502 228.5 715.502 231.5C703.502 238.7 481.169 283.5 366.502 308C347.335 313.667 316.502 331.6 316.502 344C316.502 359.5 330.002 376.5 366.502 393C395.702 406.2 751.002 481 751.002 481C751.002 481 799.502 492.5 817.502 502.5C835.502 512.5 872.813 523.429 869.502 551C866.503 575.972 817.502 589 817.502 589C817.502 589 501.669 650 361.002 673.5C361.002 673.5 27.3353 739.333 7.50195 744" stroke="black" stroke-width="15" stroke-linecap="round"/>
</svg>
